<svg width="242" height="47" viewBox="0 0 242 47" fill="none" xmlns="http://www.w3.org/2000/svg">
<path d="M0.748 35V34.66L1.462 34.388C1.938 34.2067 2.23267 33.9913 2.346 33.742C2.482 33.47 2.55 33.1073 2.55 32.654V14.906C2.55 14.4527 2.482 14.09 2.346 13.818C2.21 13.546 1.91533 13.3307 1.462 13.172L0.748 12.9V12.56H9.418V12.9L8.806 13.172C8.37533 13.3307 8.08067 13.5573 7.922 13.852C7.76333 14.124 7.684 14.4867 7.684 14.94V34.32H12.92C13.7587 34.32 14.3707 34.116 14.756 33.708C15.164 33.3 15.5493 32.7107 15.912 31.94L17.238 29.084H17.578L17.272 35H0.748ZM24.0053 35.51C22.6907 35.51 21.58 35.136 20.6733 34.388C19.7893 33.64 19.3473 32.5633 19.3473 31.158C19.3473 30.0927 19.8913 29.118 20.9793 28.234C22.0673 27.3273 23.7787 26.6473 26.1133 26.194C26.476 26.126 26.884 26.058 27.3373 25.99C27.7907 25.8993 28.2667 25.8087 28.7653 25.718V23.032C28.7653 21.4907 28.5727 20.414 28.1873 19.802C27.8247 19.1673 27.2467 18.85 26.4533 18.85C25.9093 18.85 25.4787 19.0313 25.1613 19.394C24.844 19.734 24.64 20.3347 24.5493 21.196L24.4813 21.57C24.436 22.5447 24.198 23.2587 23.7673 23.712C23.3367 24.1653 22.804 24.392 22.1693 24.392C21.58 24.392 21.0927 24.2107 20.7073 23.848C20.322 23.4853 20.1293 22.998 20.1293 22.386C20.1293 21.4567 20.4467 20.6747 21.0813 20.04C21.7387 19.4053 22.6 18.9293 23.6653 18.612C24.7307 18.2947 25.8867 18.136 27.1333 18.136C29.1507 18.136 30.7033 18.6347 31.7913 19.632C32.902 20.6067 33.4573 22.2047 33.4573 24.426V31.94C33.4573 32.96 33.9333 33.47 34.8853 33.47H35.6333L35.9393 33.742C35.5087 34.286 35.0327 34.7053 34.5113 35C34.0127 35.2947 33.2987 35.442 32.3693 35.442C31.372 35.442 30.5787 35.2153 29.9893 34.762C29.4227 34.286 29.0487 33.6627 28.8673 32.892C28.1873 33.6173 27.4847 34.2407 26.7593 34.762C26.0567 35.2607 25.1387 35.51 24.0053 35.51ZM26.0793 33.436C26.5327 33.436 26.952 33.334 27.3373 33.13C27.7453 32.9033 28.2213 32.5633 28.7653 32.11V26.398C28.5387 26.4433 28.312 26.4887 28.0853 26.534C27.8587 26.5793 27.598 26.6247 27.3033 26.67C26.2607 26.942 25.422 27.4067 24.7873 28.064C24.1753 28.6987 23.8693 29.56 23.8693 30.648C23.8693 31.5773 24.0847 32.28 24.5153 32.756C24.946 33.2093 25.4673 33.436 26.0793 33.436ZM36.707 35V34.66L37.421 34.388C37.897 34.2067 38.1917 33.9913 38.305 33.742C38.441 33.47 38.509 33.1073 38.509 32.654V14.906C38.509 14.4527 38.441 14.09 38.305 13.818C38.169 13.546 37.8743 13.3307 37.421 13.172L36.707 12.9V12.56H45.377V12.9L44.765 13.172C44.3343 13.3307 44.0397 13.5573 43.881 13.852C43.7223 14.124 43.643 14.4867 43.643 14.94V34.32H48.879C49.7177 34.32 50.3297 34.116 50.715 33.708C51.123 33.3 51.5083 32.7107 51.871 31.94L53.197 29.084H53.537L53.231 35H36.707ZM59.0803 16.368C58.3096 16.368 57.6523 16.13 57.1083 15.654C56.587 15.1553 56.3263 14.532 56.3263 13.784C56.3263 13.0133 56.587 12.39 57.1083 11.914C57.6523 11.438 58.3096 11.2 59.0803 11.2C59.851 11.2 60.497 11.438 61.0183 11.914C61.5396 12.39 61.8003 13.0133 61.8003 13.784C61.8003 14.532 61.5396 15.1553 61.0183 15.654C60.497 16.13 59.851 16.368 59.0803 16.368ZM55.0683 35V34.66L55.5443 34.524C55.9976 34.388 56.3036 34.184 56.4623 33.912C56.6436 33.64 56.7343 33.2773 56.7343 32.824V22.182C56.7343 21.706 56.6436 21.3547 56.4623 21.128C56.3036 20.8787 55.9976 20.7087 55.5443 20.618L55.0683 20.516V20.176L61.2903 18.17L61.6303 18.51L61.5283 23.338V32.858C61.5283 33.3113 61.6076 33.674 61.7663 33.946C61.9476 34.218 62.2536 34.422 62.6843 34.558L63.0243 34.66V35H55.0683ZM70.3436 35.442L64.5976 35V34.66L64.9376 34.592C65.8216 34.388 66.2636 33.8213 66.2636 32.892V14.702C66.2636 14.226 66.1843 13.8633 66.0256 13.614C65.8896 13.3647 65.5949 13.1947 65.1416 13.104L64.6656 12.968V12.628L70.7176 11.166L71.1256 11.472L70.9896 16.266V19.7C71.7376 19.1787 72.5536 18.7933 73.4376 18.544C74.3216 18.272 75.2169 18.136 76.1236 18.136C77.4156 18.136 78.5603 18.442 79.5576 19.054C80.5549 19.6433 81.3369 20.5727 81.9036 21.842C82.4929 23.0887 82.7876 24.698 82.7876 26.67C82.7876 28.642 82.4589 30.2853 81.8016 31.6C81.1669 32.892 80.3056 33.8667 79.2176 34.524C78.1523 35.1813 76.9736 35.51 75.6816 35.51C74.8429 35.51 73.9929 35.3967 73.1316 35.17C72.2929 34.9433 71.5449 34.626 70.8876 34.218L70.3436 35.442ZM73.9816 34.354C74.7069 34.354 75.3416 34.1273 75.8856 33.674C76.4296 33.2207 76.8603 32.45 77.1776 31.362C77.4949 30.2513 77.6536 28.7327 77.6536 26.806C77.6536 24.8793 77.5063 23.3947 77.2116 22.352C76.9169 21.3093 76.4976 20.584 75.9536 20.176C75.4323 19.768 74.7976 19.564 74.0496 19.564C72.9843 19.564 71.9983 19.8587 71.0916 20.448V33.504C71.5223 33.776 71.9643 33.9913 72.4176 34.15C72.8709 34.286 73.3923 34.354 73.9816 34.354ZM84.2855 35V34.66L84.7955 34.524C85.2488 34.388 85.5548 34.184 85.7135 33.912C85.8948 33.64 85.9855 33.2887 85.9855 32.858V22.216C85.9855 21.7173 85.8948 21.3547 85.7135 21.128C85.5548 20.8787 85.2488 20.7087 84.7955 20.618L84.2855 20.482V20.142L90.1335 18.17L90.4735 18.51L90.7795 21.434V21.706C91.0968 21.0713 91.5048 20.4933 92.0035 19.972C92.5248 19.428 93.0915 18.986 93.7035 18.646C94.3381 18.306 94.9615 18.136 95.5735 18.136C96.4348 18.136 97.0921 18.374 97.5455 18.85C97.9988 19.326 98.2255 19.9267 98.2255 20.652C98.2255 21.4227 97.9988 22.0233 97.5455 22.454C97.1148 22.862 96.5935 23.066 95.9815 23.066C95.0295 23.066 94.1908 22.59 93.4655 21.638L93.3975 21.57C93.1708 21.2527 92.9101 21.0827 92.6155 21.06C92.3208 21.0147 92.0488 21.1507 91.7995 21.468C91.5728 21.672 91.3801 21.9213 91.2215 22.216C91.0855 22.488 90.9495 22.8053 90.8135 23.168V32.654C90.8135 33.5607 91.2101 34.1273 92.0035 34.354L93.0915 34.66V35H84.2855ZM103.527 35.51C102.212 35.51 101.101 35.136 100.195 34.388C99.3108 33.64 98.8688 32.5633 98.8688 31.158C98.8688 30.0927 99.4128 29.118 100.501 28.234C101.589 27.3273 103.3 26.6473 105.635 26.194C105.997 26.126 106.405 26.058 106.859 25.99C107.312 25.8993 107.788 25.8087 108.287 25.718V23.032C108.287 21.4907 108.094 20.414 107.709 19.802C107.346 19.1673 106.768 18.85 105.975 18.85C105.431 18.85 105 19.0313 104.683 19.394C104.365 19.734 104.161 20.3347 104.071 21.196L104.003 21.57C103.957 22.5447 103.719 23.2587 103.289 23.712C102.858 24.1653 102.325 24.392 101.691 24.392C101.101 24.392 100.614 24.2107 100.229 23.848C99.8435 23.4853 99.6508 22.998 99.6508 22.386C99.6508 21.4567 99.9681 20.6747 100.603 20.04C101.26 19.4053 102.121 18.9293 103.187 18.612C104.252 18.2947 105.408 18.136 106.655 18.136C108.672 18.136 110.225 18.6347 111.313 19.632C112.423 20.6067 112.979 22.2047 112.979 24.426V31.94C112.979 32.96 113.455 33.47 114.407 33.47H115.155L115.461 33.742C115.03 34.286 114.554 34.7053 114.033 35C113.534 35.2947 112.82 35.442 111.891 35.442C110.893 35.442 110.1 35.2153 109.511 34.762C108.944 34.286 108.57 33.6627 108.389 32.892C107.709 33.6173 107.006 34.2407 106.281 34.762C105.578 35.2607 104.66 35.51 103.527 35.51ZM105.601 33.436C106.054 33.436 106.473 33.334 106.859 33.13C107.267 32.9033 107.743 32.5633 108.287 32.11V26.398C108.06 26.4433 107.833 26.4887 107.607 26.534C107.38 26.5793 107.119 26.6247 106.825 26.67C105.782 26.942 104.943 27.4067 104.309 28.064C103.697 28.6987 103.391 29.56 103.391 30.648C103.391 31.5773 103.606 32.28 104.037 32.756C104.467 33.2093 104.989 33.436 105.601 33.436ZM120.24 16.368C119.47 16.368 118.812 16.13 118.268 15.654C117.747 15.1553 117.486 14.532 117.486 13.784C117.486 13.0133 117.747 12.39 118.268 11.914C118.812 11.438 119.47 11.2 120.24 11.2C121.011 11.2 121.657 11.438 122.178 11.914C122.7 12.39 122.96 13.0133 122.96 13.784C122.96 14.532 122.7 15.1553 122.178 15.654C121.657 16.13 121.011 16.368 120.24 16.368ZM116.228 35V34.66L116.704 34.524C117.158 34.388 117.464 34.184 117.622 33.912C117.804 33.64 117.894 33.2773 117.894 32.824V22.182C117.894 21.706 117.804 21.3547 117.622 21.128C117.464 20.8787 117.158 20.7087 116.704 20.618L116.228 20.516V20.176L122.45 18.17L122.79 18.51L122.688 23.338V32.858C122.688 33.3113 122.768 33.674 122.926 33.946C123.108 34.218 123.414 34.422 123.844 34.558L124.184 34.66V35H116.228ZM125.69 35V34.66L126.2 34.524C126.653 34.388 126.959 34.184 127.118 33.912C127.299 33.64 127.39 33.2887 127.39 32.858V22.216C127.39 21.7173 127.299 21.3547 127.118 21.128C126.959 20.8787 126.653 20.7087 126.2 20.618L125.69 20.482V20.142L131.538 18.17L131.878 18.51L132.184 21.434V21.706C132.501 21.0713 132.909 20.4933 133.408 19.972C133.929 19.428 134.496 18.986 135.108 18.646C135.742 18.306 136.366 18.136 136.978 18.136C137.839 18.136 138.496 18.374 138.95 18.85C139.403 19.326 139.63 19.9267 139.63 20.652C139.63 21.4227 139.403 22.0233 138.95 22.454C138.519 22.862 137.998 23.066 137.386 23.066C136.434 23.066 135.595 22.59 134.87 21.638L134.802 21.57C134.575 21.2527 134.314 21.0827 134.02 21.06C133.725 21.0147 133.453 21.1507 133.204 21.468C132.977 21.672 132.784 21.9213 132.626 22.216C132.49 22.488 132.354 22.8053 132.218 23.168V32.654C132.218 33.5607 132.614 34.1273 133.408 34.354L134.496 34.66V35H125.69ZM144.778 16.368C144.007 16.368 143.35 16.13 142.806 15.654C142.284 15.1553 142.024 14.532 142.024 13.784C142.024 13.0133 142.284 12.39 142.806 11.914C143.35 11.438 144.007 11.2 144.778 11.2C145.548 11.2 146.194 11.438 146.716 11.914C147.237 12.39 147.498 13.0133 147.498 13.784C147.498 14.532 147.237 15.1553 146.716 15.654C146.194 16.13 145.548 16.368 144.778 16.368ZM140.766 35V34.66L141.242 34.524C141.695 34.388 142.001 34.184 142.16 33.912C142.341 33.64 142.432 33.2773 142.432 32.824V22.182C142.432 21.706 142.341 21.3547 142.16 21.128C142.001 20.8787 141.695 20.7087 141.242 20.618L140.766 20.516V20.176L146.988 18.17L147.328 18.51L147.226 23.338V32.858C147.226 33.3113 147.305 33.674 147.464 33.946C147.645 34.218 147.951 34.422 148.382 34.558L148.722 34.66V35H140.766ZM158.761 18.136C160.234 18.136 161.492 18.442 162.535 19.054C163.578 19.6433 164.371 20.4593 164.915 21.502C165.482 22.522 165.765 23.6893 165.765 25.004C165.765 25.2533 165.754 25.514 165.731 25.786C165.708 26.0353 165.663 26.262 165.595 26.466H155.463C155.486 28.914 155.916 30.682 156.755 31.77C157.616 32.8353 158.886 33.368 160.563 33.368C161.696 33.368 162.614 33.1867 163.317 32.824C164.02 32.4613 164.677 31.9287 165.289 31.226L165.629 31.532C164.926 32.7787 163.986 33.7533 162.807 34.456C161.651 35.1587 160.257 35.51 158.625 35.51C157.016 35.51 155.588 35.17 154.341 34.49C153.094 33.7873 152.12 32.79 151.417 31.498C150.714 30.206 150.363 28.6647 150.363 26.874C150.363 25.0153 150.771 23.44 151.587 22.148C152.403 20.8333 153.446 19.836 154.715 19.156C156.007 18.476 157.356 18.136 158.761 18.136ZM158.659 18.816C158.002 18.816 157.435 19.02 156.959 19.428C156.506 19.8133 156.143 20.516 155.871 21.536C155.622 22.5333 155.486 23.95 155.463 25.786H161.277C161.504 23.3153 161.413 21.536 161.005 20.448C160.597 19.36 159.815 18.816 158.659 18.816Z" fill="white"/>
<path d="M172.1 35.51C171.284 35.51 170.593 35.2267 170.026 34.66C169.459 34.0933 169.176 33.4133 169.176 32.62C169.176 31.8267 169.459 31.1353 170.026 30.546C170.593 29.9567 171.284 29.662 172.1 29.662C172.916 29.662 173.607 29.9567 174.174 30.546C174.741 31.1353 175.024 31.8267 175.024 32.62C175.024 33.4133 174.741 34.0933 174.174 34.66C173.607 35.2267 172.916 35.51 172.1 35.51ZM185.475 35.51C183.934 35.51 182.529 35.1813 181.259 34.524C180.013 33.844 179.015 32.8693 178.267 31.6C177.542 30.308 177.179 28.7327 177.179 26.874C177.179 25.038 177.576 23.474 178.369 22.182C179.185 20.8673 180.262 19.87 181.599 19.19C182.959 18.4873 184.444 18.136 186.053 18.136C187.368 18.136 188.479 18.3513 189.385 18.782C190.292 19.2127 190.983 19.7793 191.459 20.482C191.935 21.162 192.173 21.876 192.173 22.624C192.173 23.2587 191.981 23.7573 191.595 24.12C191.21 24.46 190.711 24.63 190.099 24.63C189.442 24.63 188.909 24.392 188.501 23.916C188.093 23.44 187.855 22.8167 187.787 22.046C187.765 21.5473 187.776 21.128 187.821 20.788C187.867 20.4253 187.867 20.0627 187.821 19.7C187.731 19.3147 187.583 19.0653 187.379 18.952C187.198 18.816 186.937 18.748 186.597 18.748C185.215 18.748 184.138 19.3487 183.367 20.55C182.619 21.7513 182.245 23.6667 182.245 26.296C182.245 28.5853 182.665 30.342 183.503 31.566C184.365 32.7673 185.679 33.368 187.447 33.368C188.513 33.368 189.374 33.1753 190.031 32.79C190.689 32.4047 191.323 31.8267 191.935 31.056L192.275 31.328C191.709 32.6653 190.836 33.6967 189.657 34.422C188.479 35.1473 187.085 35.51 185.475 35.51ZM202.247 35.51C200.524 35.51 199.028 35.1587 197.759 34.456C196.49 33.7307 195.504 32.7107 194.801 31.396C194.121 30.0813 193.781 28.54 193.781 26.772C193.781 25.004 194.144 23.474 194.869 22.182C195.617 20.89 196.626 19.8927 197.895 19.19C199.187 18.4873 200.638 18.136 202.247 18.136C203.856 18.136 205.296 18.4873 206.565 19.19C207.834 19.87 208.832 20.856 209.557 22.148C210.305 23.44 210.679 24.9813 210.679 26.772C210.679 28.5627 210.328 30.1153 209.625 31.43C208.945 32.722 207.97 33.7307 206.701 34.456C205.454 35.1587 203.97 35.51 202.247 35.51ZM202.247 34.83C203.04 34.83 203.675 34.6033 204.151 34.15C204.627 33.6967 204.967 32.892 205.171 31.736C205.398 30.58 205.511 28.948 205.511 26.84C205.511 24.7093 205.398 23.066 205.171 21.91C204.967 20.754 204.627 19.9493 204.151 19.496C203.675 19.0427 203.04 18.816 202.247 18.816C201.454 18.816 200.808 19.0427 200.309 19.496C199.833 19.9493 199.482 20.754 199.255 21.91C199.051 23.066 198.949 24.7093 198.949 26.84C198.949 28.948 199.051 30.58 199.255 31.736C199.482 32.892 199.833 33.6967 200.309 34.15C200.808 34.6033 201.454 34.83 202.247 34.83ZM212.172 35V34.66L212.648 34.524C213.079 34.4107 213.374 34.218 213.532 33.946C213.714 33.674 213.816 33.3113 213.838 32.858V22.216C213.838 21.7173 213.759 21.3547 213.6 21.128C213.442 20.8787 213.136 20.7087 212.682 20.618L212.172 20.482V20.142L217.986 18.17L218.326 18.51L218.598 20.822C219.346 20.074 220.196 19.4393 221.148 18.918C222.123 18.3967 223.132 18.136 224.174 18.136C225.262 18.136 226.135 18.3627 226.792 18.816C227.45 19.2467 227.948 19.9267 228.288 20.856C229.172 20.0173 230.124 19.36 231.144 18.884C232.187 18.3853 233.196 18.136 234.17 18.136C235.78 18.136 236.958 18.5213 237.706 19.292C238.477 20.0627 238.862 21.2753 238.862 22.93V32.892C238.862 33.776 239.27 34.3313 240.086 34.558L240.46 34.66V35H232.606V34.66L232.946 34.558C233.377 34.422 233.672 34.218 233.83 33.946C234.012 33.674 234.102 33.3113 234.102 32.858V22.454C234.102 21.502 233.932 20.856 233.592 20.516C233.252 20.1533 232.708 19.972 231.96 19.972C231.371 19.972 230.793 20.108 230.226 20.38C229.682 20.6293 229.104 21.0147 228.492 21.536C228.606 21.8987 228.674 22.2953 228.696 22.726C228.742 23.1567 228.764 23.61 228.764 24.086V32.892C228.787 33.776 229.195 34.3313 229.988 34.558L230.294 34.66V35H222.406V34.66L222.882 34.524C223.313 34.388 223.608 34.1953 223.766 33.946C223.948 33.674 224.038 33.3113 224.038 32.858V22.488C224.038 21.5813 223.868 20.9353 223.528 20.55C223.211 20.1647 222.656 19.972 221.862 19.972C221.341 19.972 220.82 20.108 220.298 20.38C219.777 20.6293 219.233 21.0033 218.666 21.502V32.892C218.666 33.776 219.063 34.3313 219.856 34.558L220.162 34.66V35H212.172Z" fill="#00211E"/>
</svg>
